<?xml version="1.0" standalone="no"?>
<!DOCTYPE svg PUBLIC "-//W3C//DTD SVG 20010904//EN"
 "http://www.w3.org/TR/2001/REC-SVG-20010904/DTD/svg10.dtd">
<svg version="1.0" xmlns="http://www.w3.org/2000/svg"
 width="740.000000pt" height="739.000000pt" viewBox="0 0 740.000000 739.000000"
 preserveAspectRatio="xMidYMid meet">

<g transform="translate(0.000000,739.000000) scale(0.100000,-0.100000)"
fill="#000000" stroke="none">
<path d="M1776 5339 c-25 -20 -65 -88 -80 -136 -7 -23 -6 -23 78 -23 68 0 86
3 86 14 0 8 18 49 39 90 l39 76 -68 0 c-53 0 -73 -4 -94 -21z"/>
<path d="M1995 5326 c-38 -41 -77 -142 -102 -263 -14 -69 -18 -135 -18 -308 1
-257 19 -369 80 -493 88 -177 196 -110 256 158 28 128 28 130 -26 130 -38 0
-47 -4 -54 -23 -14 -36 -38 -52 -56 -37 -33 27 -49 119 -49 270 0 152 16 243
49 270 20 17 51 -10 60 -51 6 -27 10 -29 54 -29 l48 0 -12 79 c-33 205 -99
331 -173 331 -15 0 -37 -13 -57 -34z"/>
<path d="M5287 5340 c-50 -40 -95 -143 -117 -273 -6 -34 -13 -74 -16 -89 -5
-27 -4 -28 40 -28 44 0 46 1 65 45 12 26 27 45 36 45 25 0 55 -80 67 -181 17
-148 -15 -356 -57 -373 -14 -5 -55 37 -55 55 0 5 -21 9 -46 9 l-47 0 6 -52
c21 -175 102 -338 167 -338 10 0 33 12 50 26 156 132 190 778 56 1071 -44 95
-96 124 -149 83z"/>
<path d="M5450 5355 c0 -3 11 -22 24 -43 13 -20 32 -58 41 -84 l18 -48 83 0
c46 0 84 3 84 6 0 3 -14 35 -30 70 -42 88 -66 104 -151 104 -38 0 -69 -2 -69
-5z"/>
<path d="M1546 5207 c-26 -34 -51 -94 -66 -160 l-8 -38 60 3 61 3 17 85 c10
47 23 97 29 113 10 27 10 27 -29 27 -32 0 -43 -6 -64 -33z"/>
<path d="M5745 5223 c14 -35 45 -167 45 -190 0 -22 4 -23 61 -23 l62 0 -7 42
c-9 58 -55 156 -80 174 -11 8 -36 14 -54 14 -28 0 -33 -3 -27 -17z"/>
<path d="M1666 5095 c-4 -13 8 -15 78 -15 65 0 85 3 90 15 4 13 -8 15 -78 15
-65 0 -85 -3 -90 -15z"/>
<path d="M5552 5098 c3 -9 32 -14 86 -16 68 -2 82 0 82 13 0 12 -15 15 -86 15
-64 0 -85 -3 -82 -12z"/>
<path d="M3618 5085 c-79 -26 -148 -119 -148 -201 0 -57 18 -54 -366 -54 -336
0 -355 1 -386 20 -42 25 -83 25 -133 0 -36 -18 -59 -20 -262 -20 l-223 0 0
-80 0 -80 665 0 c728 0 736 -1 755 -54 13 -38 13 -142 0 -167 -14 -25 -50 -25
-142 1 -129 36 -238 20 -324 -45 -26 -20 -33 -32 -29 -46 6 -17 4 -18 -20 -9
-14 5 -39 10 -54 10 -41 0 -148 -57 -179 -96 -32 -40 -38 -42 -46 -11 -3 13
-24 52 -47 87 -56 87 -71 123 -78 198 -7 59 -6 62 15 62 12 0 27 7 34 15 11
13 0 15 -86 15 l-99 0 -29 -163 c-38 -209 -44 -334 -21 -413 22 -76 59 -138
90 -152 33 -15 127 -15 196 -1 30 7 115 12 189 13 123 1 140 3 185 26 33 16
56 36 66 58 l17 32 7 -37 c3 -21 18 -58 32 -83 14 -25 38 -83 55 -129 16 -46
41 -102 55 -124 46 -74 56 -109 62 -222 l6 -110 330 0 330 0 5 110 c6 113 15
146 63 222 25 40 57 126 97 263 12 41 26 84 30 95 9 20 9 20 9 -1 1 -24 31
-54 81 -80 28 -15 61 -18 175 -20 77 -1 164 -6 194 -13 70 -14 163 -14 196 1
17 8 38 36 63 87 37 74 37 76 36 196 0 88 -7 156 -27 256 -15 75 -27 148 -27
162 l0 27 -100 0 c-62 0 -100 -4 -100 -10 0 -6 14 -13 30 -16 28 -6 30 -10 30
-50 0 -56 -24 -125 -66 -191 -18 -28 -42 -70 -54 -93 l-21 -41 -39 40 c-70 72
-167 103 -240 77 -22 -8 -23 -7 -11 8 19 22 -4 47 -78 84 -48 23 -68 27 -141
27 -47 0 -118 -7 -158 -15 -67 -13 -73 -13 -90 3 -35 36 -12 197 29 197 10 0
21 5 24 10 4 7 238 10 671 10 l664 0 0 80 0 80 -220 0 c-201 0 -223 2 -257 20
-21 11 -50 20 -66 20 -15 0 -45 -9 -67 -20 -37 -19 -59 -20 -380 -20 -264 0
-341 3 -344 13 -2 6 -8 37 -14 69 -14 75 -53 132 -108 159 -57 27 -145 33
-206 14z"/>
<path d="M1656 5034 c-27 -105 -24 -422 5 -576 l12 -68 85 0 c82 0 84 1 79 23
-31 126 -43 411 -23 575 l8 72 -80 0 c-78 0 -80 -1 -86 -26z"/>
<path d="M5563 5045 c4 -8 11 -63 18 -122 14 -126 7 -322 -16 -438 -8 -44 -15
-84 -15 -88 0 -4 37 -7 82 -5 l82 3 15 65 c16 73 22 470 8 553 l-8 47 -86 0
c-71 0 -84 -2 -80 -15z"/>
<path d="M1460 4920 c0 -18 7 -20 60 -20 53 0 60 2 60 20 0 18 -7 20 -60 20
-53 0 -60 -2 -60 -20z"/>
<path d="M5802 4923 c3 -15 16 -19 66 -21 57 -3 62 -1 62 18 0 18 -6 20 -66
20 -57 0 -65 -2 -62 -17z"/>
<path d="M1369 4888 c-22 -52 -19 -226 4 -262 34 -52 42 -29 45 137 2 149 1
157 -17 157 -12 0 -24 -12 -32 -32z"/>
<path d="M5970 4760 c0 -148 1 -161 17 -158 33 6 48 57 48 158 0 101 -15 152
-48 158 -16 3 -17 -10 -17 -158z"/>
<path d="M1453 4874 c-9 -23 4 -278 18 -351 l11 -63 60 0 60 0 -6 28 c-4 15
-9 111 -13 215 l-6 187 -59 0 c-44 0 -60 -4 -65 -16z"/>
<path d="M5806 4713 c-3 -98 -9 -195 -12 -216 l-6 -38 58 3 59 3 12 60 c17 83
27 263 19 319 l-7 46 -58 0 -58 0 -7 -177z"/>
<path d="M1495 4418 c15 -48 56 -118 74 -128 11 -5 33 -10 49 -10 l29 0 -22
78 -23 77 -57 3 c-55 3 -56 2 -50 -20z"/>
<path d="M5766 4373 c-10 -38 -20 -74 -23 -80 -3 -9 7 -13 32 -13 26 0 43 7
59 25 26 28 68 120 58 129 -3 3 -28 6 -56 6 l-52 0 -18 -67z"/>
<path d="M1696 4318 c21 -59 60 -124 86 -143 15 -10 45 -15 91 -15 l68 0 -26
44 c-14 24 -34 68 -45 98 l-18 53 -86 3 -85 3 15 -43z"/>
<path d="M5529 4333 c-24 -68 -34 -90 -56 -125 -13 -21 -23 -40 -23 -43 0 -10
119 -5 144 6 14 7 37 28 50 48 23 33 56 111 56 132 0 5 -36 9 -80 9 -79 0 -81
-1 -91 -27z"/>
<path d="M1130 2610 l0 -340 80 0 80 0 0 130 0 130 270 0 270 0 0 80 0 80
-270 0 -270 0 0 50 0 50 285 0 285 0 0 80 0 80 -365 0 -365 0 0 -340z"/>
<path d="M1910 2610 l0 -340 80 0 80 0 0 340 0 340 -80 0 -80 0 0 -340z"/>
<path d="M2140 2870 l0 -80 153 0 152 0 -3 -260 -3 -260 81 0 80 0 0 260 0
260 155 0 155 0 0 80 0 80 -385 0 -385 0 0 -80z"/>
<path d="M2970 2610 l0 -340 80 0 80 0 2 226 3 225 200 -225 200 -225 83 -1
82 0 0 340 0 340 -80 0 -80 0 -2 -226 -3 -225 -203 225 -203 226 -80 0 -79 0
0 -340z"/>
<path d="M3760 2610 l0 -340 365 0 365 0 0 80 0 80 -285 0 -285 0 0 50 0 50
268 2 267 3 0 75 0 75 -267 3 -268 2 0 50 0 50 285 0 285 0 0 80 0 80 -365 0
-365 0 0 -340z"/>
<path d="M4675 2936 c-120 -54 -155 -245 -62 -344 50 -54 64 -57 337 -62 l255
-5 0 -45 0 -45 -307 -3 -308 -2 0 -80 0 -80 314 0 c198 0 325 4 343 11 129 49
166 246 65 352 -48 51 -53 52 -327 57 l-260 5 0 45 0 45 308 3 307 2 0 80 0
80 -317 0 c-243 -1 -325 -4 -348 -14z"/>
<path d="M5550 2932 c-108 -54 -144 -219 -70 -321 53 -73 63 -75 350 -81 l255
-5 0 -45 0 -45 -307 -3 -308 -2 0 -80 0 -80 317 0 c298 0 319 1 359 20 24 12
54 39 70 62 27 38 29 49 29 129 0 82 -2 89 -31 125 -65 81 -56 79 -337 82
-166 2 -256 7 -265 14 -8 7 -12 26 -10 47 l3 36 308 3 307 2 0 80 0 80 -317 0
c-283 0 -322 -2 -353 -18z"/>
<path d="M2303 1989 c-59 -17 -73 -49 -73 -161 0 -97 1 -100 29 -129 l29 -29
151 0 151 0 0 35 0 35 -135 0 c-154 0 -155 0 -155 90 0 90 1 90 156 90 l135 0
-3 38 -3 37 -125 2 c-69 1 -139 -3 -157 -8z"/>
<path d="M2740 1835 l0 -165 175 0 175 0 0 35 0 34 -137 3 c-135 3 -138 4
-141 26 -3 22 -3 22 127 22 l131 0 0 40 0 40 -131 0 c-130 0 -130 0 -127 23 3
21 6 22 141 25 l138 3 -3 37 -3 37 -172 3 -173 2 0 -165z"/>
<path d="M3240 1835 l0 -165 35 0 34 0 3 107 3 107 95 -107 c93 -105 96 -107
138 -107 l42 0 -2 163 -3 162 -35 0 -35 0 -5 -108 -5 -108 -99 110 c-88 100
-101 111 -132 111 l-34 0 0 -165z"/>
<path d="M3737 1994 c-4 -4 -7 -22 -7 -41 l0 -33 75 0 75 0 0 -125 0 -125 40
0 40 0 0 125 0 125 76 0 75 0 -3 38 -3 37 -181 3 c-99 1 -183 -1 -187 -4z"/>
<path d="M4256 1993 c-3 -4 -6 -78 -6 -165 l0 -158 175 0 175 0 0 35 0 35
-135 0 -135 0 0 25 0 25 125 0 125 0 0 40 0 40 -125 0 -125 0 0 25 0 25 136 0
135 0 -3 38 -3 37 -166 2 c-92 1 -169 -1 -173 -4z"/>
<path d="M4750 1836 l0 -166 40 0 40 0 0 125 0 126 123 -3 122 -3 0 -30 0 -30
-102 -5 -102 -5 77 -87 77 -88 54 0 54 0 -44 47 -43 47 33 11 c19 6 45 24 58
40 34 39 29 114 -11 153 -26 26 -27 27 -201 30 l-175 4 0 -166z"/>
</g>
</svg>
